<?xml version="1.0" encoding="utf-8"?>
<!-- Generator: Adobe Illustrator 22.0.1, SVG Export Plug-In . SVG Version: 6.00 Build 0)  -->
<svg version="1.1" id="Layer_1" xmlns="http://www.w3.org/2000/svg" xmlns:xlink="http://www.w3.org/1999/xlink" x="0px" y="0px"
	 viewBox="0 0 24 24" style="enable-background:new 0 0 24 24;" xml:space="preserve">
<style type="text/css">
	.st0{fill:#FFFFFF;}
</style>
<path class="st0" d="M17.8,6.6v1.5c0,0.2-0.2,0.4-0.4,0.4h-1.5c-0.2,0-0.4-0.2-0.4-0.4V6.6c0-0.2,0.2-0.4,0.4-0.4h1.5
	C17.6,6.2,17.8,6.4,17.8,6.6z M12,14.1c1.1,0,2-0.9,2-2s-0.9-2-2-2s-2,0.9-2,2S10.9,14.1,12,14.1z M24,12c0,6.6-5.4,12-12,12
	S0,18.6,0,12S5.4,0,12,0S24,5.4,24,12z M19,10.2h-4c0.3,0.5,0.5,1.1,0.5,1.8c0,2-1.6,3.6-3.6,3.6c-2,0-3.6-1.6-3.6-3.6
	c0-0.7,0.2-1.3,0.5-1.8H5v6C5,17.8,6.3,19,7.8,19h8.5c1.5,0,2.8-1.2,2.8-2.8V10.2z M12,14.8c1.5,0,2.7-1.2,2.7-2.7
	c0-0.8-0.4-1.6-0.9-2.1c-0.2-0.2-0.4-0.3-0.7-0.4c-0.3-0.2-0.7-0.2-1.1-0.2c-0.4,0-0.8,0.1-1.1,0.2c-0.2,0.1-0.5,0.3-0.7,0.4
	c-0.6,0.5-0.9,1.2-0.9,2.1C9.2,13.6,10.5,14.8,12,14.8z M19,7.8C19,6.2,17.8,5,16.2,5H9.1v2.9H8.5V5H7.9v2.9H7.3V5
	c-0.2,0-0.4,0.1-0.6,0.2v2.7H6.2V5.5C5.5,6,5,6.8,5,7.8v1.9h4.4C10,8.9,11,8.5,12,8.5c1,0,2,0.4,2.6,1.2H19C19,9.7,19,7.8,19,7.8z"
	/>
</svg>
