<svg id="svg" version="1.1" width="400" height="177.77777777777777" xmlns="http://www.w3.org/2000/svg" xmlns:xlink="http://www.w3.org/1999/xlink" style="display: block;"><g id="svgg"><path id="path0" d="" stroke="none" fill="#000000" fill-rule="evenodd"></path><path id="path1" d="M46.714 29.556 C 46.691 29.580,46.631 35.160,46.581 41.956 L 46.489 54.311 33.422 54.400 L 20.356 54.489 20.309 60.310 L 20.262 66.131 33.375 66.177 L 46.489 66.222 46.585 85.511 C 46.679 104.292,46.692 104.830,47.045 105.956 C 49.309 113.164,53.988 116.170,62.755 116.048 L 66.222 116.000 66.269 110.360 L 66.316 104.719 65.914 104.638 C 65.692 104.593,64.749 104.514,63.817 104.463 C 61.320 104.326,60.182 103.737,59.317 102.133 L 58.933 101.422 58.933 83.822 L 58.933 66.222 62.578 66.133 L 66.222 66.044 66.269 60.368 C 66.306 55.944,66.267 54.659,66.091 54.548 C 65.968 54.470,64.287 54.404,62.356 54.403 L 58.844 54.400 58.844 42.235 C 58.844 31.413,58.814 30.039,58.565 29.790 C 58.322 29.548,46.932 29.322,46.714 29.556 M112.296 29.630 C 112.008 29.918,112.166 42.624,112.459 42.737 C 112.824 42.877,123.342 42.873,123.867 42.732 L 124.267 42.625 124.267 36.176 C 124.267 30.459,124.235 29.715,123.985 29.619 C 123.601 29.471,112.444 29.482,112.296 29.630 M249.503 29.734 C 249.456 29.857,249.439 32.837,249.464 36.356 L 249.511 42.756 254.933 42.807 C 257.916 42.835,260.616 42.812,260.933 42.754 L 261.511 42.651 261.511 36.189 C 261.511 30.460,261.479 29.715,261.230 29.619 C 260.635 29.391,249.593 29.499,249.503 29.734 M351.429 51.057 C 348.982 51.707,347.666 55.081,348.970 57.356 C 351.325 61.461,357.235 59.983,357.235 55.289 C 357.235 52.093,354.641 50.203,351.429 51.057 M354.259 52.084 C 356.963 53.391,356.879 57.279,354.120 58.515 C 351.959 59.482,349.511 57.768,349.511 55.289 C 349.511 52.756,352.072 51.027,354.259 52.084 M351.328 55.244 L 351.378 57.689 351.822 57.689 C 352.219 57.689,352.273 57.607,352.322 56.922 C 352.390 55.976,352.821 55.954,353.281 56.874 C 353.630 57.573,353.886 57.771,354.444 57.775 C 354.942 57.778,354.942 57.782,354.385 56.681 C 354.126 56.171,353.998 55.726,354.091 55.664 C 355.572 54.697,354.520 52.800,352.502 52.800 L 351.279 52.800 351.328 55.244 M100.889 53.946 C 100.791 53.978,100.231 54.103,99.644 54.224 C 98.460 54.468,96.365 55.100,96.089 55.297 C 95.991 55.366,95.718 55.482,95.483 55.555 C 94.415 55.883,91.326 57.966,89.213 59.785 C 87.619 61.156,87.565 61.088,87.507 57.605 C 87.472 55.540,87.394 54.641,87.240 54.544 C 86.903 54.330,75.949 54.367,75.544 54.584 C 75.206 54.765,75.200 55.296,75.200 85.336 L 75.200 115.904 75.600 116.002 C 75.820 116.056,78.560 116.077,81.689 116.050 L 87.378 116.000 87.483 96.533 C 87.589 76.958,87.605 76.484,88.240 74.489 C 89.501 70.527,92.645 67.625,96.903 66.493 C 98.526 66.061,101.802 66.001,102.884 66.383 C 104.047 66.793,104.009 67.010,103.958 60.166 L 103.911 53.956 102.489 53.922 C 101.707 53.903,100.987 53.914,100.889 53.946 M154.756 54.051 C 154.462 54.133,153.942 54.272,153.599 54.360 C 153.256 54.448,152.816 54.602,152.621 54.701 C 152.426 54.800,151.953 55.033,151.569 55.218 C 151.185 55.404,150.785 55.636,150.680 55.733 C 150.575 55.831,149.913 56.372,149.208 56.934 C 148.504 57.497,147.704 58.254,147.431 58.617 C 146.110 60.370,145.956 60.191,145.956 56.904 C 145.956 54.077,146.730 54.375,139.556 54.439 L 133.956 54.489 133.956 97.778 L 133.956 141.067 139.556 141.116 C 142.636 141.144,145.337 141.122,145.559 141.068 L 145.962 140.969 145.955 132.574 C 145.936 108.160,145.859 109.786,146.964 111.322 C 148.095 112.894,151.260 115.556,152.000 115.556 C 152.117 115.556,152.424 115.669,152.684 115.808 C 154.747 116.914,159.322 117.100,162.425 116.205 C 166.269 115.096,169.203 111.809,170.066 107.644 C 170.780 104.199,170.928 67.758,170.240 64.622 C 169.025 59.082,167.539 56.950,163.368 54.763 C 161.896 53.991,156.560 53.550,154.756 54.051 M295.556 54.147 C 291.972 55.025,289.695 56.107,286.756 58.329 C 285.493 59.283,285.211 59.514,284.049 60.543 C 283.316 61.192,283.200 60.769,283.200 57.453 C 283.200 55.030,283.159 54.600,282.919 54.508 C 282.289 54.266,271.341 54.390,271.132 54.641 C 270.985 54.818,270.944 63.002,270.977 85.441 L 271.022 116.000 277.067 116.000 L 283.111 116.000 283.205 96.267 C 283.291 78.154,283.324 76.469,283.605 75.755 C 283.773 75.328,283.911 74.821,283.911 74.630 C 283.911 72.855,287.183 68.876,289.689 67.603 C 292.360 66.246,296.733 65.634,298.539 66.365 C 299.800 66.875,299.743 67.178,299.691 60.209 L 299.644 53.956 298.133 53.921 C 297.281 53.901,296.157 54.000,295.556 54.147 M319.022 54.150 C 317.589 54.497,315.509 55.134,315.289 55.294 C 315.191 55.365,314.915 55.483,314.676 55.557 C 314.091 55.737,312.659 56.615,311.467 57.526 C 307.343 60.676,305.474 64.539,304.893 71.121 C 304.648 73.883,304.650 102.351,304.895 104.055 C 305.680 109.532,308.858 113.521,313.778 115.203 C 316.103 115.998,315.514 115.980,341.822 116.037 L 366.933 116.091 366.933 110.317 L 366.933 104.542 343.689 104.493 L 320.444 104.444 319.383 103.909 C 317.212 102.813,316.935 101.713,317.017 94.489 L 317.067 90.044 329.244 89.951 C 335.942 89.900,341.442 89.840,341.467 89.818 C 341.668 89.636,341.475 70.753,341.258 69.303 C 340.213 62.346,335.859 56.971,329.511 54.801 C 326.683 53.835,321.625 53.521,319.022 54.150 M353.314 54.014 C 353.528 54.359,353.194 54.933,352.779 54.933 C 352.363 54.933,352.159 54.300,352.474 53.985 C 352.641 53.818,353.205 53.838,353.314 54.014 M112.260 54.622 C 112.213 54.744,112.196 68.604,112.221 85.422 L 112.267 116.000 118.267 116.047 L 124.267 116.094 124.267 85.355 C 124.267 57.489,124.240 54.606,123.985 54.508 C 123.392 54.280,112.349 54.388,112.260 54.622 M176.260 54.588 C 176.196 54.692,176.277 55.312,176.440 55.966 C 177.151 58.828,177.282 59.339,177.523 60.193 C 177.663 60.691,177.778 61.244,177.778 61.422 C 177.778 61.601,177.891 62.154,178.029 62.651 C 178.296 63.615,178.543 64.626,178.964 66.489 C 179.108 67.124,179.344 68.124,179.487 68.711 C 179.988 70.753,180.398 72.507,180.984 75.111 C 181.094 75.600,181.298 76.389,181.437 76.865 C 181.575 77.341,181.689 77.890,181.689 78.085 C 181.689 78.281,181.803 78.812,181.943 79.265 C 182.193 80.074,182.363 80.759,182.866 82.977 C 183.239 84.624,183.643 86.354,183.935 87.556 C 184.078 88.142,184.306 89.102,184.441 89.689 C 184.577 90.276,184.806 91.236,184.950 91.822 C 185.095 92.409,185.332 93.409,185.477 94.044 C 185.623 94.680,185.837 95.600,185.955 96.089 C 186.072 96.578,186.272 97.418,186.400 97.956 C 186.528 98.493,186.728 99.333,186.846 99.822 C 187.283 101.641,187.926 104.369,188.332 106.133 C 188.479 106.769,188.715 107.769,188.858 108.356 C 189.001 108.942,189.256 110.022,189.426 110.756 C 189.728 112.060,189.967 113.052,190.453 115.022 L 190.694 116.000 196.096 116.000 L 201.498 116.000 201.641 115.289 C 201.720 114.898,201.869 114.202,201.973 113.742 C 202.077 113.283,202.229 112.483,202.311 111.965 C 202.579 110.275,203.280 106.561,203.652 104.863 C 203.795 104.214,203.911 103.473,203.911 103.216 C 203.911 102.960,204.024 102.291,204.162 101.731 C 204.300 101.170,204.544 99.951,204.704 99.022 C 204.864 98.093,205.105 96.773,205.238 96.089 C 205.555 94.463,205.819 93.058,206.157 91.200 C 206.308 90.369,206.539 89.129,206.669 88.444 C 206.800 87.760,207.030 86.520,207.181 85.689 C 208.225 79.941,208.374 79.347,208.711 79.555 C 208.809 79.616,208.889 79.909,208.889 80.207 C 208.889 80.505,209.012 81.321,209.163 82.019 C 209.600 84.039,209.936 85.727,210.035 86.400 C 210.119 86.971,210.422 88.612,211.136 92.356 C 211.285 93.138,211.512 94.378,211.639 95.111 C 211.862 96.391,211.993 97.086,212.528 99.822 C 212.661 100.507,212.908 101.867,213.075 102.844 C 213.242 103.822,213.489 105.089,213.623 105.659 C 213.757 106.229,213.867 106.890,213.867 107.128 C 213.867 107.366,213.981 108.020,214.122 108.580 C 214.262 109.141,214.472 110.160,214.588 110.844 C 214.951 112.978,215.275 114.730,215.425 115.378 L 215.570 116.000 220.629 116.050 C 226.473 116.107,226.422 116.114,226.572 115.334 C 226.712 114.608,227.164 112.671,227.413 111.733 C 227.516 111.342,227.717 110.502,227.858 109.867 C 227.999 109.231,228.231 108.231,228.373 107.644 C 228.515 107.058,228.753 106.058,228.902 105.422 C 229.252 103.926,229.615 102.401,229.938 101.067 C 230.080 100.480,230.326 99.406,230.485 98.680 C 230.644 97.954,230.805 97.308,230.844 97.244 C 230.884 97.181,231.037 96.575,231.185 95.898 C 231.530 94.318,231.957 92.463,232.285 91.111 C 232.427 90.524,232.619 89.684,232.711 89.244 C 232.803 88.804,232.957 88.164,233.052 87.822 C 233.148 87.480,233.393 86.480,233.598 85.600 C 234.113 83.381,234.472 81.859,234.750 80.711 C 235.218 78.784,235.418 77.938,235.676 76.800 C 235.819 76.164,236.053 75.164,236.195 74.578 C 236.337 73.991,236.565 73.031,236.701 72.444 C 236.940 71.410,237.293 69.924,237.778 67.911 C 238.262 65.898,238.615 64.413,238.855 63.378 C 239.132 62.181,239.502 60.616,239.821 59.289 C 240.940 54.637,240.926 54.711,240.674 54.551 C 240.413 54.386,228.622 54.343,228.197 54.506 C 228.045 54.564,227.873 54.904,227.815 55.262 C 227.757 55.619,227.589 56.511,227.443 57.244 C 227.296 57.978,227.063 59.138,226.926 59.822 C 226.789 60.507,226.587 61.547,226.478 62.133 C 226.245 63.388,225.918 65.102,225.511 67.200 C 225.350 68.031,225.112 69.271,224.984 69.956 C 224.855 70.640,224.616 71.880,224.452 72.711 C 224.106 74.476,223.757 76.279,223.473 77.778 C 223.362 78.364,223.162 79.404,223.028 80.089 C 222.894 80.773,222.655 82.013,222.496 82.844 C 222.337 83.676,222.094 84.916,221.956 85.600 C 221.607 87.326,221.326 88.804,221.128 89.956 C 220.871 91.456,220.426 92.853,220.259 92.684 C 220.120 92.544,219.945 91.702,219.542 89.244 C 219.391 88.325,219.166 87.014,218.579 83.644 C 218.443 82.862,218.201 81.422,218.042 80.444 C 217.882 79.467,217.638 78.135,217.498 77.486 C 217.359 76.836,217.244 76.076,217.244 75.796 C 217.244 75.516,217.162 75.007,217.061 74.665 C 216.961 74.324,216.801 73.444,216.708 72.711 C 216.614 71.978,216.458 71.018,216.362 70.578 C 216.267 70.138,216.058 68.978,215.898 68.000 C 215.739 67.022,215.464 65.422,215.288 64.444 C 215.113 63.467,214.837 61.867,214.676 60.889 C 214.514 59.911,214.305 58.751,214.211 58.311 C 214.117 57.871,213.967 56.914,213.876 56.184 C 213.644 54.300,213.904 54.386,208.555 54.442 L 204.031 54.489 203.786 55.644 C 203.545 56.786,203.156 58.993,202.832 61.067 C 202.740 61.653,202.617 62.253,202.558 62.400 C 202.500 62.547,202.342 63.347,202.209 64.178 C 202.075 65.009,201.849 66.329,201.706 67.111 C 201.563 67.893,201.329 69.213,201.187 70.044 C 201.044 70.876,200.844 71.956,200.742 72.444 C 200.640 72.933,200.426 74.093,200.267 75.022 C 200.107 75.951,199.868 77.271,199.736 77.956 C 199.603 78.640,199.362 80.000,199.199 80.978 C 199.037 81.956,198.795 83.316,198.663 84.000 C 198.530 84.684,198.253 86.164,198.049 87.289 C 197.844 88.413,197.604 89.655,197.516 90.049 C 197.428 90.442,197.301 91.182,197.233 91.693 C 197.035 93.183,196.440 92.549,196.186 90.578 C 196.123 90.089,195.961 89.169,195.826 88.533 C 195.690 87.898,195.455 86.757,195.304 85.999 C 195.152 85.241,194.910 84.041,194.766 83.333 C 194.622 82.624,194.414 81.564,194.303 80.978 C 194.085 79.822,193.720 77.970,193.321 76.000 C 193.182 75.316,192.986 74.276,192.885 73.689 C 192.784 73.102,192.589 72.102,192.451 71.467 C 192.132 69.990,191.745 68.050,191.388 66.133 C 191.000 64.060,190.594 62.000,190.300 60.622 C 190.000 59.214,189.725 57.758,189.433 56.028 C 189.312 55.311,189.100 54.652,188.962 54.564 C 188.592 54.330,176.406 54.353,176.260 54.588 M249.504 54.622 C 249.458 54.744,249.440 68.604,249.465 85.422 L 249.511 116.000 255.467 116.000 L 261.422 116.000 261.467 85.344 C 261.503 60.937,261.467 54.659,261.289 54.547 C 260.892 54.295,249.601 54.367,249.504 54.622 M154.530 66.426 C 156.068 67.018,157.304 68.539,157.975 70.667 C 158.503 72.342,158.495 99.349,157.966 100.711 C 156.455 104.599,151.780 105.837,148.405 103.243 C 147.791 102.770,146.667 101.318,146.667 100.996 C 146.667 100.918,146.527 100.582,146.356 100.250 C 146.067 99.688,146.044 98.631,146.044 85.689 C 146.044 70.884,146.043 70.910,146.866 69.511 C 146.952 69.364,147.094 69.084,147.181 68.889 C 148.135 66.744,151.995 65.450,154.530 66.426 M325.762 66.505 C 327.350 67.077,328.572 68.734,329.091 71.022 C 329.449 72.602,329.570 79.491,329.248 80.000 C 329.035 80.337,317.942 80.504,317.335 80.179 C 316.495 79.729,316.916 70.890,317.866 69.033 C 319.171 66.485,322.629 65.378,325.762 66.505 " stroke="none" fill="#ffffff" fill-rule="evenodd"></path><path id="path2" d="" stroke="none" fill="#808000" fill-rule="evenodd"></path><path id="path3" d="M203.644 119.942 C 189.633 120.224,167.177 121.451,159.822 122.338 C 158.991 122.438,157.151 122.631,155.733 122.766 C 154.316 122.901,152.076 123.138,150.756 123.293 C 149.436 123.447,147.916 123.618,147.378 123.672 C 146.840 123.726,146.341 123.862,146.269 123.974 C 146.113 124.219,146.087 130.517,146.241 130.919 C 146.365 131.241,182.069 131.293,204.800 131.004 C 211.204 130.923,225.244 130.777,236.000 130.681 C 247.790 130.575,256.050 130.431,256.800 130.318 C 257.484 130.216,260.324 130.132,263.111 130.132 C 265.898 130.132,270.498 130.053,273.333 129.957 C 276.169 129.860,282.249 129.701,286.844 129.604 C 291.440 129.507,295.720 129.384,296.356 129.330 C 296.991 129.276,300.271 129.158,303.644 129.069 C 313.274 128.813,339.027 127.656,349.244 127.021 C 351.493 126.881,354.293 126.723,355.467 126.669 C 356.640 126.616,357.960 126.496,358.400 126.402 C 359.922 126.079,366.454 125.890,366.770 126.160 C 367.193 126.522,370.311 126.499,370.311 126.133 C 370.311 125.906,370.795 125.867,373.600 125.867 C 376.405 125.867,376.889 125.827,376.889 125.600 C 376.889 125.373,377.361 125.333,380.067 125.333 C 382.675 125.333,383.285 125.286,383.467 125.067 C 383.643 124.855,384.166 124.800,386.022 124.798 C 388.570 124.795,389.156 124.708,389.156 124.335 C 389.156 124.137,389.644 124.089,391.644 124.089 C 393.738 124.089,394.133 124.047,394.133 123.822 C 394.133 123.599,394.499 123.556,396.356 123.556 C 398.212 123.556,398.578 123.512,398.578 123.289 C 398.578 123.111,398.756 123.022,399.111 123.022 C 399.467 123.022,399.644 122.933,399.644 122.756 C 399.644 122.609,399.724 122.489,399.822 122.489 C 399.920 122.489,400.000 122.247,400.000 121.951 L 400.000 121.413 397.378 121.462 C 395.395 121.499,394.766 121.565,394.800 121.733 C 394.835 121.907,393.630 121.956,389.244 121.956 C 384.385 121.956,383.644 121.991,383.644 122.222 C 383.644 122.455,382.599 122.489,375.301 122.489 C 367.100 122.489,366.955 122.495,366.844 122.846 C 366.667 123.405,315.468 123.082,312.178 122.502 C 311.640 122.407,309.320 122.283,307.022 122.228 C 304.724 122.172,299.644 122.008,295.733 121.863 C 266.588 120.786,256.777 120.472,237.333 119.995 C 231.529 119.853,209.774 119.818,203.644 119.942 M131.200 125.885 C 129.858 126.107,128.095 126.369,125.778 126.691 C 124.702 126.841,123.102 127.074,122.222 127.209 C 118.650 127.757,116.806 128.036,115.200 128.271 C 114.271 128.408,112.791 128.637,111.911 128.782 C 111.031 128.926,109.791 129.129,109.156 129.232 C 108.520 129.336,107.340 129.541,106.533 129.688 C 105.727 129.835,104.367 130.077,103.511 130.226 C 102.656 130.375,101.396 130.612,100.711 130.753 C 99.610 130.979,97.951 131.312,93.600 132.179 C 92.916 132.316,91.796 132.558,91.111 132.718 C 90.427 132.877,89.387 133.114,88.800 133.244 C 87.065 133.629,84.428 134.269,82.311 134.819 C 79.723 135.491,76.980 136.227,76.178 136.464 C 75.689 136.609,74.929 136.834,74.489 136.965 C 74.049 137.095,73.249 137.331,72.711 137.490 C 68.907 138.609,60.836 141.285,59.467 141.881 C 59.271 141.966,58.631 142.203,58.044 142.407 C 56.356 142.996,54.605 143.682,51.525 144.960 C 50.677 145.312,49.903 145.600,49.806 145.600 C 49.708 145.600,49.402 145.713,49.126 145.851 C 48.849 145.989,48.342 146.219,48.000 146.361 C 47.207 146.690,46.436 147.031,44.933 147.718 C 44.273 148.020,43.700 148.267,43.660 148.267 C 43.620 148.267,42.960 148.555,42.194 148.907 C 41.427 149.259,40.440 149.711,40.000 149.910 C 39.560 150.110,38.320 150.692,37.244 151.204 C 34.839 152.348,34.290 152.533,33.307 152.533 C 32.738 152.533,32.533 152.604,32.533 152.800 C 32.533 152.967,32.365 153.067,32.083 153.067 C 31.836 153.067,31.587 153.187,31.531 153.333 C 31.475 153.480,31.243 153.600,31.016 153.600 C 30.789 153.600,30.483 153.720,30.337 153.867 C 30.190 154.013,29.908 154.133,29.710 154.133 C 29.513 154.133,29.285 154.251,29.205 154.395 C 29.124 154.539,28.873 154.685,28.648 154.719 C 28.422 154.754,28.170 154.890,28.088 155.023 C 28.007 155.155,27.795 155.285,27.619 155.311 C 27.443 155.337,27.208 155.482,27.096 155.635 C 26.985 155.787,26.692 155.911,26.444 155.911 C 26.196 155.911,25.948 156.031,25.891 156.178 C 25.835 156.324,25.666 156.444,25.517 156.444 C 25.367 156.444,25.244 156.564,25.244 156.711 C 25.244 156.889,25.067 156.978,24.711 156.978 C 24.356 156.978,24.178 157.067,24.178 157.244 C 24.178 157.422,24.000 157.511,23.644 157.511 C 23.289 157.511,23.111 157.600,23.111 157.778 C 23.111 157.953,22.935 158.044,22.597 158.044 C 22.304 158.044,22.038 158.159,21.980 158.311 C 21.924 158.458,21.673 158.578,21.422 158.578 C 21.172 158.578,20.921 158.698,20.864 158.844 C 20.808 158.991,20.623 159.111,20.453 159.111 C 20.082 159.111,19.200 159.834,19.200 160.139 C 19.200 160.261,18.967 160.356,18.667 160.356 C 18.322 160.356,18.133 160.446,18.133 160.611 C 18.133 160.769,17.913 160.888,17.556 160.922 C 17.210 160.955,16.996 161.067,17.022 161.200 C 17.048 161.329,16.886 161.422,16.635 161.422 C 16.397 161.422,16.083 161.542,15.937 161.689 C 15.790 161.836,15.584 161.956,15.479 161.956 C 15.375 161.956,15.289 162.076,15.289 162.222 C 15.289 162.387,15.122 162.489,14.853 162.489 C 14.614 162.489,14.352 162.607,14.271 162.751 C 14.191 162.894,13.931 163.042,13.694 163.078 C 13.457 163.114,13.232 163.236,13.195 163.350 C 13.157 163.463,13.010 163.556,12.868 163.556 C 12.727 163.556,12.568 163.667,12.516 163.802 C 12.464 163.938,12.187 164.096,11.900 164.153 C 11.596 164.214,11.378 164.371,11.378 164.529 C 11.378 164.712,11.204 164.800,10.844 164.800 C 10.489 164.800,10.311 164.889,10.311 165.067 C 10.311 165.213,10.191 165.333,10.044 165.333 C 9.898 165.333,9.778 165.453,9.778 165.600 C 9.778 165.778,9.600 165.867,9.244 165.867 C 8.889 165.867,8.711 165.956,8.711 166.133 C 8.711 166.312,8.533 166.400,8.172 166.400 C 7.857 166.400,7.591 166.511,7.531 166.667 C 7.475 166.813,7.317 166.933,7.181 166.933 C 7.045 166.933,6.933 167.053,6.933 167.200 C 6.933 167.359,6.770 167.467,6.528 167.467 C 6.303 167.467,5.920 167.698,5.664 167.990 C 5.411 168.279,4.993 168.567,4.735 168.632 C 4.478 168.697,4.267 168.861,4.267 168.997 C 4.267 169.133,4.107 169.244,3.911 169.244 C 3.714 169.244,3.556 169.363,3.556 169.511 C 3.556 169.678,3.387 169.778,3.106 169.778 C 2.858 169.778,2.609 169.898,2.553 170.044 C 2.495 170.196,2.230 170.311,1.937 170.311 C 1.598 170.311,1.422 170.402,1.422 170.578 C 1.422 170.724,1.302 170.844,1.156 170.844 C 1.009 170.844,0.889 170.964,0.889 171.111 C 0.889 171.258,0.769 171.378,0.622 171.378 C 0.444 171.378,0.356 171.556,0.356 171.911 C 0.356 172.204,0.276 172.444,0.178 172.444 C 0.074 172.444,0.000 173.037,0.000 173.867 L 0.000 175.289 0.711 175.289 C 1.225 175.289,1.422 175.215,1.422 175.022 C 1.422 174.869,1.583 174.756,1.799 174.756 C 2.189 174.756,3.556 173.527,3.556 173.176 C 3.556 173.067,3.787 172.978,4.070 172.978 C 4.363 172.978,4.628 172.863,4.687 172.711 C 4.743 172.564,4.911 172.444,5.061 172.444 C 5.211 172.444,5.333 172.324,5.333 172.178 C 5.333 172.000,5.511 171.911,5.867 171.911 C 6.222 171.911,6.400 171.822,6.400 171.644 C 6.400 171.498,6.520 171.378,6.667 171.378 C 6.813 171.378,6.933 171.258,6.933 171.111 C 6.933 170.933,7.111 170.844,7.467 170.844 C 7.822 170.844,8.000 170.756,8.000 170.578 C 8.000 170.344,8.329 170.221,8.761 170.292 C 8.837 170.304,8.945 170.194,9.002 170.046 C 9.058 169.899,9.219 169.778,9.358 169.778 C 9.497 169.778,9.655 169.663,9.709 169.522 C 9.763 169.381,10.041 169.215,10.326 169.152 C 10.611 169.090,10.844 168.925,10.844 168.786 C 10.844 168.624,11.035 168.533,11.378 168.533 C 11.733 168.533,11.911 168.444,11.911 168.267 C 11.911 168.120,12.031 168.000,12.178 168.000 C 12.324 168.000,12.444 167.880,12.444 167.733 C 12.444 167.558,12.620 167.467,12.959 167.467 C 13.252 167.467,13.517 167.352,13.575 167.200 C 13.632 167.053,13.883 166.933,14.133 166.933 C 14.384 166.933,14.635 166.813,14.691 166.667 C 14.748 166.520,14.905 166.400,15.041 166.400 C 15.177 166.400,15.289 166.280,15.289 166.133 C 15.289 165.956,15.467 165.867,15.822 165.867 C 16.178 165.867,16.356 165.778,16.356 165.600 C 16.356 165.422,16.533 165.333,16.889 165.333 C 17.231 165.333,17.422 165.243,17.422 165.081 C 17.422 164.942,17.668 164.774,17.968 164.708 C 18.268 164.643,18.556 164.476,18.609 164.339 C 18.662 164.201,18.936 164.089,19.219 164.089 C 19.558 164.089,19.733 163.998,19.733 163.822 C 19.733 163.644,19.911 163.556,20.267 163.556 C 20.622 163.556,20.800 163.467,20.800 163.289 C 20.800 163.111,20.978 163.022,21.333 163.022 C 21.689 163.022,21.867 162.933,21.867 162.756 C 21.867 162.609,21.989 162.489,22.139 162.489 C 22.289 162.489,22.457 162.369,22.513 162.222 C 22.572 162.070,22.837 161.956,23.130 161.956 C 23.469 161.956,23.644 161.864,23.644 161.689 C 23.644 161.511,23.822 161.422,24.178 161.422 C 24.533 161.422,24.711 161.333,24.711 161.156 C 24.711 160.978,24.889 160.889,25.244 160.889 C 25.600 160.889,25.778 160.800,25.778 160.622 C 25.778 160.443,25.957 160.356,26.328 160.356 C 26.728 160.356,26.903 160.259,26.971 160.000 C 27.037 159.748,27.213 159.644,27.576 159.644 C 27.913 159.644,28.089 159.553,28.089 159.378 C 28.089 159.180,28.296 159.111,28.889 159.111 C 29.481 159.111,29.689 159.042,29.689 158.844 C 29.689 158.667,29.867 158.578,30.222 158.578 C 30.578 158.578,30.756 158.489,30.756 158.311 C 30.756 158.133,30.934 158.044,31.294 158.044 C 31.610 158.044,31.876 157.934,31.936 157.778 C 31.992 157.631,32.232 157.511,32.469 157.511 C 32.706 157.511,32.946 157.391,33.002 157.244 C 33.061 157.092,33.326 156.978,33.619 156.978 C 33.958 156.978,34.133 156.887,34.133 156.711 C 34.133 156.533,34.311 156.444,34.667 156.444 C 35.022 156.444,35.200 156.356,35.200 156.178 C 35.200 156.031,35.340 155.905,35.511 155.898 C 36.386 155.859,37.035 155.615,36.890 155.379 C 36.824 155.274,37.005 155.200,37.328 155.200 C 37.653 155.200,37.920 155.091,37.980 154.933 C 38.038 154.781,38.304 154.667,38.597 154.667 C 38.935 154.667,39.111 154.576,39.111 154.400 C 39.111 154.203,39.316 154.133,39.892 154.133 C 40.422 154.133,40.706 154.048,40.775 153.867 C 40.833 153.716,41.098 153.600,41.383 153.600 C 41.796 153.600,41.934 153.486,42.133 152.979 C 42.268 152.634,42.539 152.314,42.744 152.258 C 43.255 152.118,45.462 151.276,46.516 150.820 C 46.824 150.687,47.157 150.578,47.257 150.578 C 47.356 150.578,47.664 150.460,47.941 150.317 C 48.218 150.173,49.604 149.646,51.022 149.145 C 52.440 148.644,53.760 148.163,53.956 148.075 C 54.456 147.851,64.164 144.656,65.778 144.185 C 66.511 143.971,67.311 143.728,67.556 143.644 C 67.800 143.561,68.600 143.325,69.333 143.120 C 70.067 142.914,70.907 142.675,71.200 142.589 C 71.493 142.503,72.373 142.261,73.156 142.050 C 73.938 141.840,74.858 141.579,75.200 141.471 C 75.542 141.362,76.102 141.215,76.444 141.144 C 76.787 141.072,78.187 140.721,79.556 140.364 C 81.980 139.731,83.235 139.426,85.422 138.938 C 86.009 138.807,87.249 138.527,88.178 138.317 C 89.107 138.107,90.227 137.861,90.667 137.771 C 91.107 137.681,92.027 137.493,92.711 137.354 C 93.396 137.214,94.436 137.008,95.022 136.896 C 95.609 136.785,96.649 136.582,97.333 136.446 C 98.018 136.310,99.338 136.069,100.267 135.911 C 101.196 135.753,102.596 135.508,103.378 135.367 C 104.160 135.225,105.320 135.030,105.956 134.933 C 111.969 134.012,114.324 133.701,120.622 132.993 C 123.277 132.695,127.572 132.290,130.441 132.067 C 133.927 131.797,133.713 132.035,133.649 128.514 L 133.600 125.778 132.889 125.750 C 132.498 125.735,131.738 125.796,131.200 125.885 " stroke="none" fill="#e42239" fill-rule="evenodd"></path><path id="path4" d="M36.444 7.200 C 36.444 7.420,36.118 7.467,34.572 7.467 C 33.072 7.467,32.680 7.520,32.598 7.733 C 32.528 7.914,32.245 8.000,31.714 8.000 C 31.167 8.000,30.933 8.074,30.933 8.246 C 30.933 8.403,30.637 8.537,30.123 8.614 C 29.677 8.681,29.269 8.850,29.215 8.990 C 29.161 9.130,28.972 9.244,28.794 9.244 C 28.616 9.244,28.350 9.364,28.203 9.511 C 28.057 9.658,27.851 9.778,27.746 9.778 C 27.641 9.778,27.556 9.898,27.556 10.044 C 27.556 10.211,27.387 10.311,27.106 10.311 C 26.858 10.311,26.609 10.431,26.553 10.578 C 26.497 10.724,26.378 10.844,26.288 10.844 C 26.065 10.844,24.178 12.749,24.178 12.974 C 24.178 13.074,24.058 13.156,23.911 13.156 C 23.733 13.156,23.644 13.333,23.644 13.689 C 23.644 14.044,23.556 14.222,23.378 14.222 C 23.231 14.222,23.111 14.342,23.111 14.489 C 23.111 14.636,22.991 14.756,22.844 14.756 C 22.667 14.756,22.578 14.933,22.578 15.289 C 22.578 15.631,22.487 15.822,22.325 15.822 C 22.186 15.822,22.021 16.056,21.959 16.341 C 21.896 16.626,21.730 16.903,21.589 16.957 C 21.447 17.012,21.333 17.287,21.333 17.575 C 21.333 17.874,21.220 18.139,21.067 18.198 C 20.875 18.271,20.800 18.571,20.800 19.264 C 20.800 19.957,20.725 20.257,20.533 20.331 C 20.299 20.421,20.267 22.489,20.267 37.461 L 20.267 54.489 33.378 54.400 L 46.489 54.311 46.581 41.956 C 46.631 35.160,46.691 29.580,46.714 29.556 C 46.932 29.322,58.322 29.548,58.565 29.790 C 58.814 30.039,58.844 31.413,58.844 42.235 L 58.844 54.400 62.356 54.403 C 64.287 54.404,65.968 54.470,66.091 54.548 C 66.267 54.659,66.306 55.944,66.269 60.368 L 66.222 66.044 62.578 66.133 L 58.933 66.222 58.933 83.822 L 58.933 101.422 59.317 102.133 C 60.182 103.737,61.320 104.326,63.817 104.463 C 64.749 104.514,65.692 104.593,65.914 104.638 L 66.316 104.719 66.269 110.360 L 66.222 116.000 62.755 116.048 C 53.988 116.170,49.309 113.164,47.045 105.956 C 46.692 104.830,46.679 104.292,46.585 85.511 L 46.489 66.222 33.378 66.177 L 20.267 66.131 20.267 103.101 C 20.267 134.141,20.306 140.094,20.509 140.213 C 20.646 140.293,20.791 140.779,20.842 141.326 C 20.892 141.859,21.023 142.326,21.133 142.363 C 21.243 142.400,21.333 142.611,21.333 142.832 C 21.333 143.053,21.493 143.419,21.689 143.644 C 21.884 143.870,22.044 144.202,22.044 144.383 C 22.044 144.563,22.164 144.711,22.311 144.711 C 22.474 144.711,22.578 144.877,22.578 145.137 C 22.578 145.371,22.698 145.608,22.844 145.664 C 22.991 145.721,23.111 145.889,23.111 146.039 C 23.111 146.189,23.231 146.311,23.378 146.311 C 23.524 146.311,23.644 146.434,23.644 146.583 C 23.644 146.733,23.764 146.902,23.911 146.958 C 24.058 147.014,24.178 147.182,24.178 147.331 C 24.178 147.697,25.656 149.156,26.027 149.156 C 26.189 149.156,26.368 149.276,26.425 149.422 C 26.481 149.569,26.638 149.689,26.775 149.689 C 26.911 149.689,27.022 149.809,27.022 149.956 C 27.022 150.102,27.145 150.222,27.294 150.222 C 27.444 150.222,27.613 150.342,27.669 150.489 C 27.725 150.636,27.963 150.756,28.197 150.756 C 28.456 150.756,28.622 150.859,28.622 151.022 C 28.622 151.170,28.780 151.289,28.978 151.289 C 29.173 151.289,29.373 151.289,29.422 151.289 C 29.471 151.289,29.671 151.449,29.867 151.644 C 30.087 151.865,30.459 152.000,30.844 152.000 C 31.279 152.000,31.467 152.080,31.467 152.267 C 31.467 153.105,34.370 152.571,37.244 151.204 C 38.320 150.692,39.560 150.110,40.000 149.910 C 40.440 149.711,41.427 149.259,42.194 148.907 C 42.960 148.555,43.620 148.267,43.660 148.267 C 43.700 148.267,44.273 148.020,44.933 147.718 C 45.593 147.416,46.373 147.067,46.667 146.942 C 48.147 146.311,48.665 146.081,49.126 145.851 C 49.402 145.713,49.708 145.600,49.806 145.600 C 49.903 145.600,50.677 145.312,51.525 144.960 C 54.605 143.682,56.356 142.996,58.044 142.407 C 58.631 142.203,59.271 141.966,59.467 141.881 C 60.836 141.285,68.907 138.609,72.711 137.490 C 73.249 137.331,74.049 137.095,74.489 136.965 C 74.929 136.834,75.689 136.609,76.178 136.464 C 76.980 136.227,79.723 135.491,82.311 134.819 C 84.428 134.269,87.065 133.629,88.800 133.244 C 89.387 133.114,90.427 132.877,91.111 132.718 C 91.796 132.558,92.916 132.316,93.600 132.179 C 97.951 131.312,99.610 130.979,100.711 130.753 C 101.396 130.612,102.656 130.375,103.511 130.226 C 104.367 130.077,105.727 129.835,106.533 129.688 C 107.340 129.541,108.520 129.336,109.156 129.232 C 109.791 129.129,111.031 128.926,111.911 128.782 C 112.791 128.637,114.271 128.408,115.200 128.271 C 116.806 128.036,118.650 127.757,122.222 127.209 C 123.102 127.074,124.742 126.836,125.867 126.681 C 126.991 126.525,128.351 126.326,128.889 126.238 C 134.033 125.393,133.689 125.224,133.689 128.589 C 133.689 132.030,133.904 131.803,130.400 132.073 C 123.557 132.602,115.311 133.528,108.889 134.490 C 105.592 134.983,104.805 135.109,103.378 135.367 C 102.596 135.508,101.196 135.753,100.267 135.911 C 99.338 136.069,98.018 136.310,97.333 136.446 C 96.649 136.582,95.609 136.785,95.022 136.896 C 94.436 137.008,93.396 137.214,92.711 137.354 C 92.027 137.493,91.107 137.681,90.667 137.771 C 90.227 137.861,89.107 138.107,88.178 138.317 C 87.249 138.527,86.009 138.807,85.422 138.938 C 83.235 139.426,81.980 139.731,79.556 140.364 C 78.187 140.721,76.787 141.072,76.444 141.144 C 76.102 141.215,75.542 141.362,75.200 141.471 C 74.858 141.579,73.938 141.840,73.156 142.050 C 72.373 142.261,71.493 142.503,71.200 142.589 C 70.907 142.675,70.067 142.914,69.333 143.120 C 68.600 143.325,67.800 143.561,67.556 143.644 C 67.311 143.728,66.511 143.971,65.778 144.185 C 64.164 144.656,54.456 147.851,53.956 148.075 C 53.760 148.163,52.440 148.644,51.022 149.145 C 49.604 149.646,48.218 150.173,47.941 150.317 C 47.664 150.460,47.356 150.578,47.257 150.578 C 47.157 150.578,46.824 150.687,46.516 150.820 C 45.454 151.280,43.256 152.117,42.730 152.262 C 42.521 152.320,42.308 152.525,42.258 152.717 C 42.133 153.196,353.558 153.279,353.956 152.800 C 354.091 152.637,354.480 152.533,354.955 152.533 C 355.496 152.533,355.733 152.459,355.733 152.290 C 355.733 152.131,356.045 152.004,356.622 151.928 C 357.231 151.847,357.511 151.728,357.511 151.549 C 357.511 151.406,357.571 151.298,357.644 151.310 C 358.135 151.387,358.578 151.251,358.578 151.022 C 358.578 150.876,358.698 150.756,358.844 150.756 C 358.991 150.756,359.111 150.636,359.111 150.489 C 359.111 150.311,359.289 150.222,359.644 150.222 C 360.000 150.222,360.178 150.133,360.178 149.956 C 360.178 149.809,360.300 149.689,360.450 149.689 C 360.600 149.689,360.768 149.569,360.825 149.422 C 360.881 149.276,361.038 149.156,361.175 149.156 C 361.311 149.156,361.422 149.036,361.422 148.889 C 361.422 148.742,361.542 148.622,361.689 148.622 C 361.836 148.622,361.956 148.502,361.956 148.356 C 361.956 148.209,362.076 148.089,362.222 148.089 C 362.369 148.089,362.489 147.969,362.489 147.822 C 362.489 147.676,362.609 147.556,362.756 147.556 C 362.904 147.556,363.022 147.398,363.022 147.200 C 363.022 147.002,363.141 146.844,363.289 146.844 C 363.436 146.844,363.556 146.724,363.556 146.578 C 363.556 146.431,363.676 146.311,363.822 146.311 C 364.000 146.311,364.089 146.133,364.089 145.778 C 364.089 145.470,364.183 145.244,364.311 145.243 C 364.562 145.242,365.333 144.186,365.333 143.843 C 365.333 143.720,365.453 143.499,365.600 143.352 C 365.747 143.206,365.867 142.811,365.867 142.476 C 365.867 142.053,365.948 141.867,366.133 141.867 C 366.340 141.867,366.400 141.632,366.400 140.819 C 366.400 140.052,366.471 139.744,366.667 139.669 C 367.030 139.530,367.073 126.374,366.711 126.093 C 366.447 125.889,359.623 126.143,358.400 126.402 C 357.960 126.496,356.640 126.616,355.467 126.669 C 354.293 126.723,351.493 126.881,349.244 127.021 C 339.027 127.656,313.274 128.813,303.644 129.069 C 300.271 129.158,296.991 129.276,296.356 129.330 C 295.720 129.384,291.440 129.507,286.844 129.604 C 282.249 129.701,276.169 129.860,273.333 129.957 C 270.498 130.053,265.898 130.132,263.111 130.132 C 260.324 130.132,257.484 130.216,256.800 130.318 C 256.050 130.431,247.790 130.575,236.000 130.681 C 225.244 130.777,211.204 130.923,204.800 131.004 C 182.069 131.293,146.365 131.241,146.241 130.919 C 146.087 130.517,146.113 124.219,146.269 123.974 C 146.341 123.862,146.840 123.726,147.378 123.672 C 147.916 123.618,149.436 123.447,150.756 123.293 C 152.076 123.138,154.316 122.901,155.733 122.766 C 157.151 122.631,158.991 122.437,159.822 122.337 C 170.281 121.071,193.661 120.012,214.222 119.874 C 233.443 119.745,248.144 120.104,295.733 121.863 C 299.644 122.008,304.724 122.172,307.022 122.228 C 309.320 122.283,311.640 122.407,312.178 122.502 C 314.811 122.966,366.507 123.419,366.786 122.980 C 366.864 122.856,366.929 121.256,366.931 119.423 L 366.933 116.091 341.822 116.037 C 315.514 115.980,316.103 115.998,313.778 115.203 C 308.858 113.521,305.680 109.532,304.895 104.055 C 304.650 102.351,304.648 73.883,304.893 71.121 C 305.474 64.539,307.343 60.676,311.467 57.526 C 312.659 56.615,314.091 55.737,314.676 55.557 C 314.915 55.483,315.191 55.365,315.289 55.294 C 315.387 55.223,316.027 54.995,316.711 54.787 C 326.086 51.940,335.488 55.459,339.288 63.239 C 341.418 67.599,341.511 68.320,341.511 80.385 C 341.511 85.551,341.491 89.796,341.467 89.818 C 341.442 89.840,335.942 89.900,329.244 89.951 L 317.067 90.044 317.017 94.489 C 316.935 101.713,317.212 102.813,319.383 103.909 L 320.444 104.444 343.689 104.493 L 366.933 104.542 366.933 62.658 C 366.933 25.665,366.902 20.743,366.667 20.508 C 366.510 20.351,366.400 19.917,366.400 19.454 C 366.400 18.873,366.330 18.667,366.133 18.667 C 365.937 18.667,365.867 18.461,365.867 17.886 C 365.867 17.355,365.781 17.072,365.600 17.002 C 365.453 16.946,365.333 16.715,365.333 16.490 C 365.333 16.264,365.173 15.942,364.978 15.775 C 364.782 15.607,364.622 15.309,364.622 15.113 C 364.622 14.914,364.504 14.756,364.356 14.756 C 364.209 14.756,364.089 14.636,364.089 14.489 C 364.089 14.342,363.969 14.222,363.822 14.222 C 363.668 14.222,363.556 14.061,363.556 13.840 C 363.556 13.630,363.296 13.200,362.978 12.884 C 362.660 12.568,362.249 12.100,362.064 11.844 C 361.879 11.587,361.628 11.378,361.505 11.378 C 361.383 11.378,361.236 11.258,361.180 11.111 C 361.124 10.964,360.913 10.844,360.711 10.844 C 360.509 10.844,360.298 10.724,360.242 10.578 C 360.186 10.431,360.028 10.311,359.892 10.311 C 359.756 10.311,359.644 10.191,359.644 10.044 C 359.644 9.867,359.467 9.778,359.111 9.778 C 358.756 9.778,358.578 9.689,358.578 9.511 C 358.578 9.364,358.466 9.244,358.330 9.244 C 358.194 9.244,358.039 9.132,357.987 8.995 C 357.934 8.859,357.572 8.693,357.182 8.627 C 356.792 8.561,356.429 8.393,356.375 8.253 C 356.311 8.086,356.006 8.000,355.472 8.000 C 354.875 8.000,354.667 7.931,354.667 7.733 C 354.667 7.512,354.331 7.467,352.711 7.467 C 351.091 7.467,350.756 7.421,350.756 7.200 C 350.756 6.963,333.175 6.933,193.600 6.933 C 54.025 6.933,36.444 6.963,36.444 7.200 M123.985 29.619 C 124.235 29.715,124.267 30.459,124.267 36.176 L 124.267 42.625 123.867 42.732 C 123.342 42.873,112.824 42.877,112.459 42.737 C 112.166 42.624,112.008 29.918,112.296 29.630 C 112.444 29.482,123.601 29.471,123.985 29.619 M261.230 29.619 C 261.479 29.715,261.511 30.460,261.511 36.189 L 261.511 42.651 260.933 42.754 C 260.616 42.812,257.916 42.835,254.933 42.807 L 249.511 42.756 249.464 36.356 C 249.439 32.837,249.456 29.857,249.503 29.734 C 249.593 29.499,260.635 29.391,261.230 29.619 M354.211 51.038 C 358.409 52.095,358.249 58.630,354.003 59.580 C 349.407 60.609,346.458 55.027,349.965 51.940 C 351.118 50.925,352.553 50.620,354.211 51.038 M351.605 52.071 C 348.687 53.434,348.795 57.395,351.781 58.551 C 353.141 59.077,354.373 58.728,355.456 57.510 C 357.787 54.890,354.751 50.602,351.605 52.071 M354.196 53.236 C 354.847 53.839,354.787 55.209,354.091 55.664 C 353.998 55.726,354.126 56.171,354.385 56.681 C 354.942 57.782,354.942 57.778,354.444 57.775 C 353.886 57.771,353.630 57.573,353.281 56.874 C 352.821 55.954,352.390 55.976,352.322 56.922 C 352.273 57.607,352.219 57.689,351.822 57.689 L 351.378 57.689 351.328 55.244 L 351.279 52.800 352.502 52.800 C 353.555 52.800,353.792 52.861,354.196 53.236 M103.958 60.166 C 104.009 67.010,104.047 66.793,102.884 66.383 C 101.802 66.001,98.526 66.061,96.903 66.493 C 92.645 67.625,89.501 70.527,88.240 74.489 C 87.605 76.484,87.589 76.958,87.483 96.533 L 87.378 116.000 81.689 116.050 C 78.560 116.077,75.820 116.056,75.600 116.002 L 75.200 115.904 75.200 85.336 C 75.200 55.296,75.206 54.765,75.544 54.584 C 75.949 54.367,86.903 54.330,87.240 54.544 C 87.394 54.641,87.472 55.540,87.507 57.605 C 87.565 61.088,87.619 61.156,89.213 59.785 C 91.326 57.966,94.415 55.883,95.483 55.555 C 95.718 55.482,95.991 55.366,96.089 55.297 C 96.365 55.100,98.460 54.468,99.644 54.224 C 100.231 54.103,100.791 53.978,100.889 53.946 C 100.987 53.914,101.707 53.903,102.489 53.922 L 103.911 53.956 103.958 60.166 M161.722 54.243 C 162.476 54.449,163.217 54.684,163.368 54.763 C 167.539 56.950,169.025 59.082,170.240 64.622 C 170.928 67.758,170.780 104.199,170.066 107.644 C 169.203 111.809,166.269 115.096,162.425 116.205 C 159.322 117.100,154.747 116.914,152.684 115.808 C 152.424 115.669,152.117 115.556,152.000 115.556 C 151.260 115.556,148.095 112.894,146.964 111.322 C 145.859 109.786,145.936 108.160,145.955 132.574 L 145.962 140.969 145.559 141.068 C 145.337 141.122,142.636 141.144,139.556 141.116 L 133.956 141.067 133.956 97.778 L 133.956 54.489 139.556 54.439 C 146.730 54.375,145.956 54.077,145.956 56.904 C 145.956 60.191,146.110 60.370,147.431 58.617 C 147.704 58.254,148.504 57.497,149.208 56.934 C 149.913 56.372,150.575 55.831,150.680 55.733 C 150.785 55.636,151.185 55.404,151.569 55.218 C 151.953 55.033,152.426 54.800,152.621 54.701 C 152.816 54.602,153.256 54.448,153.599 54.360 C 153.942 54.272,154.462 54.133,154.756 54.051 C 155.931 53.725,160.270 53.844,161.722 54.243 M299.691 60.209 C 299.743 67.178,299.800 66.875,298.539 66.365 C 296.733 65.634,292.360 66.246,289.689 67.603 C 287.183 68.876,283.911 72.855,283.911 74.630 C 283.911 74.821,283.773 75.328,283.605 75.755 C 283.324 76.469,283.291 78.154,283.205 96.267 L 283.111 116.000 277.067 116.000 L 271.022 116.000 270.977 85.441 C 270.944 63.002,270.985 54.818,271.132 54.641 C 271.341 54.390,282.289 54.266,282.919 54.508 C 283.159 54.600,283.200 55.030,283.200 57.453 C 283.200 60.769,283.316 61.192,284.049 60.543 C 284.315 60.307,284.733 59.939,284.978 59.725 C 289.159 56.067,294.228 53.831,298.133 53.921 L 299.644 53.956 299.691 60.209 M352.474 53.985 C 352.159 54.300,352.363 54.933,352.779 54.933 C 353.194 54.933,353.528 54.359,353.314 54.014 C 353.205 53.838,352.641 53.818,352.474 53.985 M123.985 54.508 C 124.240 54.606,124.267 57.489,124.267 85.355 L 124.267 116.094 118.267 116.047 L 112.267 116.000 112.221 85.422 C 112.196 68.604,112.213 54.744,112.260 54.622 C 112.349 54.388,123.392 54.280,123.985 54.508 M188.962 54.564 C 189.100 54.652,189.312 55.311,189.433 56.028 C 189.725 57.758,190.000 59.214,190.300 60.622 C 190.594 62.000,191.000 64.060,191.388 66.133 C 191.745 68.050,192.132 69.990,192.451 71.467 C 192.589 72.102,192.784 73.102,192.885 73.689 C 192.986 74.276,193.182 75.316,193.321 76.000 C 193.720 77.970,194.085 79.822,194.303 80.978 C 194.414 81.564,194.622 82.624,194.766 83.333 C 194.910 84.041,195.152 85.241,195.304 85.999 C 195.455 86.757,195.690 87.898,195.826 88.533 C 195.961 89.169,196.123 90.089,196.186 90.578 C 196.440 92.549,197.035 93.183,197.233 91.693 C 197.301 91.182,197.428 90.442,197.516 90.049 C 197.604 89.655,197.844 88.413,198.049 87.289 C 198.253 86.164,198.530 84.684,198.663 84.000 C 198.795 83.316,199.037 81.956,199.199 80.978 C 199.362 80.000,199.603 78.640,199.736 77.956 C 199.868 77.271,200.107 75.951,200.267 75.022 C 200.426 74.093,200.640 72.933,200.742 72.444 C 200.844 71.956,201.044 70.876,201.187 70.044 C 201.329 69.213,201.563 67.893,201.706 67.111 C 201.849 66.329,202.075 65.009,202.209 64.178 C 202.342 63.347,202.500 62.547,202.558 62.400 C 202.617 62.253,202.740 61.653,202.832 61.067 C 203.156 58.993,203.545 56.786,203.786 55.644 L 204.031 54.489 208.555 54.442 C 213.904 54.386,213.644 54.300,213.876 56.184 C 213.967 56.914,214.117 57.871,214.211 58.311 C 214.305 58.751,214.514 59.911,214.676 60.889 C 214.837 61.867,215.113 63.467,215.288 64.444 C 215.464 65.422,215.739 67.022,215.898 68.000 C 216.058 68.978,216.267 70.138,216.362 70.578 C 216.458 71.018,216.614 71.978,216.708 72.711 C 216.801 73.444,216.961 74.324,217.061 74.665 C 217.162 75.007,217.244 75.516,217.244 75.796 C 217.244 76.076,217.359 76.836,217.498 77.486 C 217.638 78.135,217.882 79.467,218.042 80.444 C 218.201 81.422,218.443 82.862,218.579 83.644 C 219.166 87.014,219.391 88.325,219.542 89.244 C 219.945 91.702,220.120 92.544,220.259 92.684 C 220.426 92.853,220.871 91.456,221.128 89.956 C 221.326 88.804,221.607 87.326,221.956 85.600 C 222.094 84.916,222.337 83.676,222.496 82.844 C 222.655 82.013,222.894 80.773,223.028 80.089 C 223.162 79.404,223.362 78.364,223.473 77.778 C 223.757 76.279,224.106 74.476,224.452 72.711 C 224.616 71.880,224.855 70.640,224.984 69.956 C 225.112 69.271,225.350 68.031,225.511 67.200 C 225.918 65.102,226.245 63.388,226.478 62.133 C 226.587 61.547,226.789 60.507,226.926 59.822 C 227.063 59.138,227.296 57.978,227.443 57.244 C 227.589 56.511,227.757 55.619,227.815 55.262 C 227.873 54.904,228.045 54.564,228.197 54.506 C 228.622 54.343,240.413 54.386,240.674 54.551 C 240.926 54.711,240.940 54.637,239.821 59.289 C 239.502 60.616,239.132 62.181,238.855 63.378 C 238.615 64.413,238.262 65.898,237.778 67.911 C 237.293 69.924,236.940 71.410,236.701 72.444 C 236.565 73.031,236.337 73.991,236.195 74.578 C 236.053 75.164,235.819 76.164,235.676 76.800 C 235.418 77.938,235.218 78.784,234.750 80.711 C 234.472 81.859,234.113 83.381,233.598 85.600 C 233.393 86.480,233.148 87.480,233.052 87.822 C 232.957 88.164,232.803 88.804,232.711 89.244 C 232.619 89.684,232.427 90.524,232.285 91.111 C 231.957 92.463,231.530 94.318,231.185 95.898 C 231.037 96.575,230.884 97.181,230.844 97.244 C 230.805 97.308,230.644 97.954,230.485 98.680 C 230.326 99.406,230.080 100.480,229.938 101.067 C 229.615 102.401,229.252 103.926,228.902 105.422 C 228.753 106.058,228.515 107.058,228.373 107.644 C 228.231 108.231,227.999 109.231,227.858 109.867 C 227.717 110.502,227.516 111.342,227.413 111.733 C 227.164 112.671,226.712 114.608,226.572 115.334 C 226.422 116.114,226.473 116.107,220.629 116.050 L 215.570 116.000 215.425 115.378 C 215.275 114.730,214.951 112.978,214.588 110.844 C 214.472 110.160,214.262 109.141,214.122 108.580 C 213.981 108.020,213.867 107.366,213.867 107.128 C 213.867 106.890,213.757 106.229,213.623 105.659 C 213.489 105.089,213.242 103.822,213.075 102.844 C 212.908 101.867,212.661 100.507,212.528 99.822 C 211.993 97.086,211.862 96.391,211.639 95.111 C 211.512 94.378,211.285 93.138,211.136 92.356 C 210.422 88.612,210.119 86.971,210.035 86.400 C 209.936 85.727,209.600 84.039,209.163 82.019 C 209.012 81.321,208.889 80.505,208.889 80.207 C 208.889 79.909,208.809 79.616,208.711 79.555 C 208.374 79.347,208.225 79.941,207.181 85.689 C 207.030 86.520,206.800 87.760,206.669 88.444 C 206.539 89.129,206.308 90.369,206.157 91.200 C 205.819 93.058,205.555 94.463,205.238 96.089 C 205.105 96.773,204.864 98.093,204.704 99.022 C 204.544 99.951,204.300 101.170,204.162 101.731 C 204.024 102.291,203.911 102.960,203.911 103.216 C 203.911 103.473,203.795 104.214,203.652 104.863 C 203.280 106.561,202.579 110.275,202.311 111.965 C 202.229 112.483,202.077 113.283,201.973 113.742 C 201.869 114.202,201.720 114.898,201.641 115.289 L 201.498 116.000 196.096 116.000 L 190.694 116.000 190.453 115.022 C 189.967 113.052,189.728 112.060,189.426 110.756 C 189.256 110.022,189.001 108.942,188.858 108.356 C 188.715 107.769,188.479 106.769,188.332 106.133 C 187.926 104.369,187.283 101.641,186.846 99.822 C 186.728 99.333,186.528 98.493,186.400 97.956 C 186.272 97.418,186.072 96.578,185.955 96.089 C 185.837 95.600,185.623 94.680,185.477 94.044 C 185.332 93.409,185.095 92.409,184.950 91.822 C 184.806 91.236,184.577 90.276,184.441 89.689 C 184.306 89.102,184.078 88.142,183.935 87.556 C 183.643 86.354,183.239 84.624,182.866 82.977 C 182.363 80.759,182.193 80.074,181.943 79.265 C 181.803 78.812,181.689 78.281,181.689 78.085 C 181.689 77.890,181.575 77.341,181.437 76.865 C 181.298 76.389,181.094 75.600,180.984 75.111 C 180.398 72.507,179.988 70.753,179.487 68.711 C 179.344 68.124,179.108 67.124,178.964 66.489 C 178.543 64.626,178.296 63.615,178.029 62.651 C 177.891 62.154,177.778 61.601,177.778 61.422 C 177.778 61.244,177.663 60.691,177.523 60.193 C 177.282 59.339,177.151 58.828,176.440 55.966 C 176.277 55.312,176.196 54.692,176.260 54.588 C 176.406 54.353,188.592 54.330,188.962 54.564 M261.289 54.547 C 261.467 54.659,261.503 60.937,261.467 85.344 L 261.422 116.000 255.467 116.000 L 249.511 116.000 249.465 85.422 C 249.440 68.604,249.458 54.744,249.504 54.622 C 249.601 54.367,260.892 54.295,261.289 54.547 M149.763 66.576 C 148.855 66.991,147.475 68.227,147.181 68.889 C 147.094 69.084,146.952 69.364,146.866 69.511 C 146.043 70.910,146.044 70.884,146.044 85.689 C 146.044 98.631,146.067 99.688,146.356 100.250 C 146.527 100.582,146.667 100.918,146.667 100.996 C 146.667 101.318,147.791 102.770,148.405 103.243 C 151.780 105.837,156.455 104.599,157.966 100.711 C 158.495 99.349,158.503 72.342,157.975 70.667 C 156.749 66.780,153.192 65.007,149.763 66.576 M320.301 66.648 C 317.561 67.999,316.993 69.650,316.983 76.305 C 316.978 79.814,316.995 79.997,317.335 80.179 C 317.942 80.504,329.035 80.337,329.248 80.000 C 329.892 78.981,329.285 70.598,328.452 68.990 C 327.140 66.462,323.060 65.289,320.301 66.648 " stroke="none" fill="#f58024" fill-rule="evenodd"></path></g></svg>